<?xml version="1.0" encoding="iso-8859-1"?>
<!-- Generator: Adobe Illustrator 19.0.0, SVG Export Plug-In . SVG Version: 6.00 Build 0)  -->
<svg xmlns="http://www.w3.org/2000/svg" xmlns:xlink="http://www.w3.org/1999/xlink" version="1.1" id="Layer_1" x="0px" y="0px" viewBox="0 0 511.998 511.998" style="enable-background:new 0 0 511.998 511.998;" xml:space="preserve">
<path style="fill:#E0E0E3;" d="M504.164,257.235c0,0-111.106,155.102-248.163,155.102S7.837,257.235,7.837,257.235  S118.943,102.133,256,102.133S504.164,257.235,504.164,257.235z"/>
<path style="fill:#D2D1D3;" d="M256,377.717c-107.777,0-200.749-81.457-243.774-126.306c-2.87,3.705-4.39,5.823-4.39,5.823  S118.943,412.337,256,412.337s248.163-155.103,248.163-155.103s-1.52-2.118-4.39-5.823C456.749,296.26,363.778,377.717,256,377.717z  "/>
<circle style="fill:#00ABE7;" cx="256" cy="257.231" r="125.492"/>
<path style="fill:#009AE5;" d="M256,346.066c-63.079,0-115.283-46.544-124.155-107.162c-0.876,5.984-1.336,12.103-1.336,18.331  c0,69.307,56.184,125.491,125.491,125.491s125.492-56.184,125.492-125.491c0-6.228-0.461-12.346-1.336-18.331  C371.283,299.522,319.081,346.066,256,346.066z"/>
<circle style="fill:#E0E0E3;" cx="256" cy="257.231" r="63.45"/>
<path style="fill:#D2D1D3;" d="M256,286.066c-29.039,0-53.504-19.516-61.041-46.141c-1.558,5.505-2.41,11.306-2.41,17.31  c0,35.043,28.408,63.45,63.45,63.45s63.45-28.408,63.45-63.45c0-6.004-0.852-11.805-2.41-17.31  C309.504,266.551,285.04,286.066,256,286.066z"/>
<path d="M401.737,46.366h-5.274c-4.329,0-7.837-3.508-7.837-7.837s3.508-7.837,7.837-7.837h5.274c4.329,0,7.837,3.508,7.837,7.837  S406.065,46.366,401.737,46.366z"/>
<path d="M473.576,123.478c-4.329,0-7.837-3.508-7.837-7.837V55.645c0-5.116-4.162-9.28-9.279-9.28h-26.99  c-4.329,0-7.837-3.508-7.837-7.837s3.508-7.837,7.837-7.837h26.99c13.758,0,24.952,11.194,24.952,24.953v59.996  C481.413,119.969,477.904,123.478,473.576,123.478z"/>
<path d="M456.461,481.33h-59.997c-4.329,0-7.837-3.508-7.837-7.837c0-4.329,3.508-7.837,7.837-7.837h59.997  c5.116,0,9.279-4.162,9.279-9.279v-59.997c0-4.329,3.508-7.837,7.837-7.837s7.837,3.508,7.837,7.837v59.997  C481.413,470.137,470.219,481.33,456.461,481.33z"/>
<path d="M38.292,123.362c-0.008,0-0.017,0-0.024,0c-4.328-0.014-7.826-3.533-7.813-7.86l0.182-59.996  c0.021-6.665,2.634-12.923,7.361-17.622c4.708-4.68,10.953-7.255,17.589-7.255c0.026,0,0.051,0,0.077,0l59.997,0.182  c4.328,0.014,7.826,3.533,7.813,7.86c-0.014,4.321-3.519,7.814-7.837,7.814c-0.008,0-0.016,0-0.024,0l-59.997-0.182  c-0.009,0-0.019,0-0.028,0c-2.468,0-4.789,0.957-6.54,2.698c-1.759,1.747-2.73,4.074-2.738,6.553l-0.182,59.996  C46.114,119.869,42.608,123.362,38.292,123.362z"/>
<path d="M115.52,481.33H55.523c-13.758,0-24.952-11.194-24.952-24.952v-59.997c0-4.329,3.509-7.837,7.837-7.837  s7.837,3.508,7.837,7.837v59.997c0,5.116,4.163,9.279,9.279,9.279h59.996c4.328,0,7.837,3.508,7.837,7.837  C123.356,477.823,119.848,481.33,115.52,481.33z"/>
<path d="M256,420.174c-43.659,0-89.015-15.088-134.81-44.847c-3.63-2.358-4.659-7.212-2.302-10.842  c2.357-3.63,7.212-4.661,10.841-2.301c43.211,28.08,85.693,42.316,126.27,42.316c68.279,0,130.183-41.011,170.09-75.417  c34.909-30.095,59.577-60.556,68.267-71.845c-14.142-18.331-70.587-87.32-145.301-123.88c-3.888-1.902-5.498-6.596-3.594-10.482  c1.902-3.888,6.596-5.498,10.482-3.594c89.863,43.969,151.99,129.76,154.59,133.39c1.955,2.728,1.955,6.398,0,9.126  c-1.156,1.614-28.838,39.982-73.934,78.919c-26.582,22.952-53.686,41.262-80.556,54.422  C322.127,411.752,288.467,420.174,256,420.174z"/>
<path d="M97.099,356.275c-1.692,0-3.394-0.544-4.828-1.669C37.463,311.663,2.91,263.814,1.466,261.798  c-1.955-2.728-1.955-6.398,0-9.126c1.157-1.614,28.838-39.982,73.935-78.919c26.582-22.952,53.686-41.262,80.556-54.422  C189.874,102.719,223.533,94.296,256,94.296c21.502,0,43.677,3.715,65.91,11.039c4.112,1.354,6.346,5.785,4.99,9.895  c-1.354,4.111-5.782,6.345-9.895,4.99c-20.648-6.803-41.173-10.253-61.006-10.253c-68.39,0-130.389,41.137-170.356,75.646  c-34.835,30.077-59.354,60.371-68.005,71.616c9.954,12.923,40.905,51.038,84.298,85.038c3.407,2.67,4.005,7.595,1.335,11.002  C101.727,355.245,99.424,356.275,97.099,356.275z"/>
<path d="M256,390.563c-73.518,0-133.329-59.811-133.329-133.329S182.482,123.907,256,123.907c33.615,0,65.723,12.548,90.409,35.332  c3.181,2.936,3.378,7.894,0.444,11.075c-2.936,3.18-7.894,3.378-11.075,0.444c-21.783-20.105-50.115-31.178-79.779-31.178  c-64.876,0-117.655,52.78-117.655,117.654c0,64.876,52.78,117.656,117.656,117.656s117.656-52.78,117.656-117.656  c0-23.091-6.683-45.441-19.326-64.633c-2.381-3.614-1.381-8.474,2.233-10.855c3.614-2.382,8.474-1.382,10.855,2.233  c14.336,21.76,21.913,47.091,21.913,73.256C389.329,330.752,329.518,390.563,256,390.563z"/>
<path d="M256,328.522c-39.308,0-71.288-31.979-71.288-71.288c0-39.307,31.979-71.287,71.288-71.287s71.288,31.979,71.288,71.287  C327.288,296.543,295.308,328.522,256,328.522z M256,201.622c-30.666,0-55.615,24.948-55.615,55.614S225.334,312.85,256,312.85  c30.666,0,55.615-24.949,55.615-55.615S286.666,201.622,256,201.622z"/>
<path d="M262.501,60.819c-4.323,0-7.829-3.5-7.837-7.823L254.64,38.51c-0.007-4.329,3.495-7.843,7.823-7.85c0.004,0,0.009,0,0.014,0  c4.323,0,7.829,3.5,7.837,7.823l0.024,14.485c0.007,4.329-3.495,7.843-7.823,7.85C262.51,60.819,262.505,60.819,262.501,60.819z"/>
<path d="M307.796,76.189c-2.08,0-4.158-0.823-5.698-2.457c-2.973-3.146-2.831-8.106,0.317-11.078l12.293-11.61  c3.146-2.974,8.106-2.832,11.078,0.317c2.973,3.146,2.831,8.106-0.317,11.078l-12.293,11.61  C311.662,75.48,309.727,76.189,307.796,76.189z"/>
<path d="M218.344,76.344c-1.922,0-3.847-0.702-5.359-2.12l-12.333-11.567c-3.157-2.961-3.315-7.92-0.354-11.078  c2.961-3.158,7.921-3.315,11.077-0.355l12.333,11.567c3.157,2.961,3.315,7.92,0.354,11.078  C222.519,75.513,220.434,76.344,218.344,76.344z"/>
<path d="M262.475,481.369c-0.004,0-0.008,0-0.014,0c-4.329-0.007-7.83-3.521-7.823-7.85l0.024-14.485  c0.007-4.324,3.515-7.823,7.837-7.823c0.004,0,0.008,0,0.014,0c4.329,0.007,7.83,3.521,7.823,7.85l-0.024,14.485  C270.306,477.869,266.797,481.369,262.475,481.369z"/>
<path d="M320.087,463.123c-1.932,0-3.865-0.709-5.379-2.14l-12.293-11.61c-3.147-2.972-3.288-7.932-0.317-11.078  c2.971-3.149,7.932-3.287,11.078-0.317l12.293,11.61c3.147,2.972,3.288,7.932,0.317,11.078  C324.245,462.3,322.167,463.123,320.087,463.123z"/>
<path d="M206.014,462.926c-2.09,0-4.175-0.831-5.718-2.475c-2.961-3.157-2.802-8.117,0.354-11.078l12.333-11.567  c3.157-2.961,8.117-2.802,11.077,0.355c2.961,3.157,2.802,8.117-0.354,11.078l-12.333,11.567  C209.862,462.223,207.936,462.926,206.014,462.926z"/>
<g>
</g>
<g>
</g>
<g>
</g>
<g>
</g>
<g>
</g>
<g>
</g>
<g>
</g>
<g>
</g>
<g>
</g>
<g>
</g>
<g>
</g>
<g>
</g>
<g>
</g>
<g>
</g>
<g>
</g>
</svg>
